<?xml version="1.0" encoding="UTF-8"?>
<!-- Created with Inkscape (http://www.inkscape.org/) -->
<svg width="70mm" height="70mm" version="1.1" viewBox="0 0 70 70" xmlns="http://www.w3.org/2000/svg">
 <path d="m36.666 7.2952c5.071-3.2666 11.037-2.2929 14.141 2.2537 1.3713 2.0087 1.8352 4.2563 1.6566 6.6572-0.0323 0.43365-0.0672 0.86704-0.10531 1.356 0.90303 0 1.719-0.0175 2.5342 3e-3 3.9219 0.0984 6.9043 1.8857 8.6103 5.3679 1.8055 3.6851 1.5854 7.3919-1.0692 10.665-0.90752 1.1187-1.0176 1.7539-0.0294 2.9289 2.6906 3.1988 2.8974 7.7666 0.75882 11.384-1.9926 3.3705-6.0971 5.2353-10.082 4.5881-0.20876-0.0339-0.42784-4e-3 -0.81042-4e-3 0.58367 4.8538-0.70697 8.9196-5.3012 11.207-4.5151 2.2476-8.54 0.99165-12.168-2.3516-1.8164 1.8677-3.9516 2.9514-6.4802 3.3639-5.2462 0.85593-10.92-3.779-11.058-9.089-0.02514-0.95594 0.44926-2.1114-0.18653-2.8194-0.62468-0.69532-1.7462-0.0336-2.6532-0.1389-3.8309-0.4445-6.776-2.205-8.41-5.7714-1.7219-3.7589-1.1737-7.3377 1.3618-10.537 0.77258-0.97499 0.85884-1.4661 0.02408-2.4961-2.6461-3.2652-3.12-6.9408-1.2851-10.762 1.7767-3.7005 4.8736-5.4348 8.9167-5.5348 2.1246-0.0527 2.0243-0.0209 2.1087-2.218 0.15928-4.1521 1.8748-7.4565 5.8446-9.1273 3.8566-1.623 7.5015-1.0578 10.751 1.6566 0.30374 0.25374 0.58447 0.53499 0.87789 0.80089 0.0315 0.0286 0.0778 0.0405 0.1905 0.0968 0.73475-0.24606 1.1406-0.99457 1.8632-1.4785m19.793 29.003c-0.81756-1.1938-1.2576-1.2867-0.15002-2.0489 0.39846-0.27411 1.3996-1.2158 1.7923-1.4968 2.7861-1.9952 3.6203-5.4996 2.0209-8.4352-1.4391-2.6413-4.884-3.7574-7.9489-2.6093-1.475 0.55271-2.7496 1.4084-3.851 2.5022-3.3464 3.3229-6.649 6.6903-10.002 10.006-0.64029 0.63315-0.70802 1.0533-0.0365 1.7193 3.4113 3.3816 6.7694 6.8172 10.174 10.206 1.3682 1.3618 3.0162 2.2656 4.907 2.7223 4.2442 1.025 8.3973-3.1501 7.4287-7.4091-0.5514-2.4238-2.2468-3.8013-4.3339-5.1565m-46.5 10.039c0.93133 1.2385 2.1103 2.1159 3.6375 2.4765 2.9467 0.69611 5.3382-0.58262 7.3258-2.4569 3.5896-3.3848 6.9853-6.9755 10.473-10.469 0.5797-0.5805 0.61357-1.012-0.0188-1.6349-3.3285-3.2795-6.6096-6.6069-9.9131-9.9118-1.1695-1.17-2.535-2.0571-4.0841-2.6281-3.2303-1.1909-6.5887 0.10345-7.9454 3.0287-1.4542 3.1353-0.36804 6.564 2.6392 8.3312 2.3294 1.369 2.376 2.6646 0.06879 4.0206-2.6842 1.5777-4.7866 5.3478-2.1828 9.2435m28.353 13.211c4.1688 3.1702 9.4596 1.2618 10.348-3.7759 0.38497-2.1831-0.39899-4.1402-1.8106-5.7354-3.5309-3.9907-7.4255-7.6335-11.187-11.403-0.71491-0.71623-1.2353-0.51118-1.8719 0.13467-2.9975 3.0409-6.056 6.0219-9.0382 9.0776-1.6341 1.6743-3.1155 3.46-3.6581 5.8573-0.72708 3.212 1.6177 6.7911 4.8588 7.2922 3.1057 0.48021 5.4017-0.71676 7.1808-3.7436 1.0396-1.7687 2.3257-1.7878 3.3718-0.0291 0.47467 0.79772 0.94166 1.5928 1.8063 2.3249m-13.809-37.526c3.0993 3.1316 6.2151 6.2473 9.2855 9.4067 0.68422 0.7038 1.2036 0.89271 1.9608 0.12012 3.5457-3.6182 7.139-7.1895 10.672-10.819 1.3216-1.3576 2.1688-3.0274 2.3209-4.9302 0.24289-3.0332-1.4332-5.5205-4.2058-6.4434-2.6069-0.86783-5.5528 0.22384-7.2792 2.6977-2.1826 3.1274-2.7726 3.1239-4.816-0.0265-1.5317-2.3617-4.6395-3.4909-7.3065-2.6546-2.5948 0.81359-4.3627 3.3298-4.2352 6.1923 0.11827 2.6524 1.6756 4.5656 3.6028 6.4572z" filter="url(#engrosar)" stroke="#000" stroke-width="1.5875"/>
 <g stroke-width=".26458">
  <path d="m19.789 19.205 1.9619-11.058 13.02 2.3186 13.198-1.9619 2.3186 10.88-15.517 14.804z" fill="#cdde87"/>
  <path d="m49.758 51.17-1.9619 11.058-13.02-2.3186-13.198 1.9619-2.3186-10.88 15.517-14.804z" fill="#89a02c"/>
  <path d="m18.674 50.062-11.058-1.9619 2.3186-13.02-1.9619-13.198 10.88-2.3186 14.804 15.517z" fill="#677821"/>
  <path d="m50.981 20.119 11.058 1.9619-2.3186 13.02 1.9619 13.198-10.88 2.3186-14.804-15.517z" fill="#abc837"/>
 </g>
</svg>
