<svg
   viewBox="0 0 110 22"
   class="h-full w-full"
   version="1.1"
   id="svg1"
   xmlns="http://www.w3.org/2000/svg">
  <defs
     id="defs1" />
  <g>
    <path
       fill="currentColor"
       opacity="1"
       stroke="none"
       d="m 106.54449,7.7056889 c 1.76445,1.346388 2.2068,3.2123521 2.4545,5.1702521 0.11697,0.924613 -0.30082,1.248559 -1.20762,1.238102 -2.81671,-0.03248 -5.63409,-0.02053 -8.451119,-0.007 -1.387641,0.0066 -1.560192,0.309849 -0.94762,1.557446 1.31745,2.683187 4.957289,3.449161 7.628769,1.561759 0.60755,-0.429236 1.05761,-0.724405 1.66175,-0.01016 0.4607,0.544645 0.54251,0.961287 -0.0566,1.4331 -2.39716,1.887804 -5.03663,2.225553 -7.825839,1.104463 -2.521058,-1.013301 -3.877402,-2.990498 -4.09517,-5.671108 -0.239228,-2.944992 0.674201,-5.4449371 3.39224,-6.9083401 2.500339,-1.346194 5.003679,-1.098399 7.446709,0.531517 m -6.736069,1.448998 c -0.94844,0.760024 -1.660038,1.6563921 -1.764972,3.0499921 2.844991,0 5.618941,0 8.468201,0 0.12371,-1.519877 -0.66182,-2.4252001 -1.70676,-3.1314231 -1.58469,-1.071017 -3.21742,-1.016095 -4.996469,0.081431 z"
       id="path2"
       style="stroke-width:0.264583" />
    <path
       fill="currentColor"
       opacity="1"
       stroke="none"
       d="m 62.61055,11.777929 c 0.04095,2.364181 0.07785,4.608602 0.0764,6.852991 -5.3e-4,0.61495 0.216847,1.388044 -0.797547,1.519965 -0.935924,0.121706 -1.221775,-0.08479 -1.574226,-1.311693 -2.038586,1.60963 -4.280149,1.952487 -6.691926,1.065945 -1.589916,-0.584451 -2.588522,-1.99345 -2.614393,-3.625739 -0.02734,-1.725046 0.823407,-2.961049 2.507729,-3.666095 1.736867,-0.727062 3.562823,-0.407832 5.354428,-0.452589 1.67396,-0.04183 1.932408,-0.411321 1.261099,-1.977527 -0.64245,-1.4988011 -2.551022,-2.2409341 -4.535527,-1.7810371 -1.12377,0.260434 -2.103305,0.841737 -3.029474,1.438753 -1.329417,-1.344718 -1.299614,-1.671756 0.218284,-2.465231 2.034752,-1.063665 4.189093,-1.313558 6.403428,-0.730948 2.235959,0.588287 3.162712,2.005303 3.421723,5.1332051 m -4.450357,6.365462 c 1.44332,-0.659593 2.310275,-1.712516 2.304478,-3.365693 -0.0019,-0.496102 -0.132598,-0.888987 -0.726845,-0.870514 -1.536776,0.04778 -3.078268,0.05058 -4.607779,0.185793 -0.945944,0.08363 -1.632233,0.667176 -1.819487,1.650132 -0.175659,0.922078 0.233392,1.638798 0.980094,2.145615 1.155186,0.784045 2.408711,0.66602 3.869539,0.254667 z"
       id="path3"
       style="stroke-width:0.264583" />
    <path
       fill="currentColor"
       opacity="1"
       stroke="none"
       d="m 68.789516,12.77962 c -0.0098,2.10294 -0.03149,4.084119 -0.01249,6.064909 0.0079,0.822195 -0.163845,1.337683 -1.158036,1.331936 -0.968174,-0.0056 -1.20251,-0.491347 -1.191852,-1.322353 0.04843,-3.781997 0.09077,-7.564136 0.112477,-11.3463521 0.0035,-0.611058 0.103886,-1.051647 0.834154,-1.040416 0.632262,0.0097 1.27993,-0.01339 1.353553,0.867479 0.0217,0.259448 0.05289,0.518097 0.09068,0.882713 1.836161,-1.679289 3.919464,-2.21154 6.261246,-1.672394 2.637372,0.607198 3.895177,2.334184 4.027984,5.7323201 0.08759,2.241814 -5.29e-4,4.490021 0.02805,6.734879 0.01101,0.86129 -0.357505,1.15303 -1.192081,1.15516 -0.898313,0.0024 -1.10481,-0.402196 -1.084283,-1.223092 0.04951,-1.979901 0.02671,-3.961847 0.01897,-5.942902 -0.01153,-2.958137 -1.179208,-4.5750211 -3.55878,-4.6395111 -2.002089,-0.05427 -4.297072,0.941449 -4.529585,4.4176241 z"
       id="path4"
       style="stroke-width:0.264583" />
    <path
       fill="currentColor"
       opacity="1"
       stroke="none"
       d="m 91.681305,6.8936119 c 0.579969,0.340312 1.137801,0.565475 1.531237,0.956167 0.428751,0.425757 1.383297,0.7937 0.580374,1.668679 -0.660247,0.7194901 -1.231805,0.6461261 -1.999007,-0.02196 -1.750166,-1.524042 -3.912663,-1.546143 -5.704059,-0.22791 -1.80367,1.3272621 -2.473251,3.8638881 -1.600613,6.0637401 0.782381,1.972222 2.837132,3.159858 4.98403,2.894065 1.006933,-0.124661 1.873189,-0.565817 2.531113,-1.300527 0.721127,-0.805281 1.298482,-0.49221 1.887609,0.08891 0.714314,0.704602 -0.01696,1.121418 -0.391546,1.517068 -1.735535,1.833124 -4.956255,2.328749 -7.626422,1.222436 -2.365377,-0.980043 -4.085492,-3.617455 -4.021169,-6.165604 0.138314,-5.4794441 4.437729,-8.4552711 9.828453,-6.6950741 z"
       id="path5"
       style="stroke-width:0.264583" />
    <path
       fill="currentColor"
       opacity="1"
       stroke="none"
       d="m 4.5138961,13.930803 c 0.5647743,4.001813 4.5053192,5.614893 7.6265269,3.244035 0.341437,-0.259376 0.576945,-0.734814 1.063358,-0.722098 0.507299,0.01328 0.936479,0.305692 1.209008,0.716971 0.321905,0.485815 -0.113363,0.829569 -0.372062,1.152482 C 11.849358,21.05758 6.5270392,20.972742 3.9825572,18.173979 1.6365445,15.593548 1.4992204,11.455219 3.6721983,8.8206169 c 2.1597779,-2.618615 6.295684,-3.269543 9.2565507,-1.456857 0.751737,0.460227 1.085236,0.828212 1.576308,1.758728 -0.707096,0.794517 -1.305613,1.4220301 -2.435786,0.35609 C 10.663074,8.1523029 8.9208783,7.9397269 7.1627007,8.8006809 5.0912593,9.8150399 4.3364189,11.584515 4.5138961,13.930803 Z"
       id="path6"
       style="stroke-width:0.264583" />
    <path
       fill="currentColor"
       opacity="1"
       stroke="none"
       d="m 48.476157,6.5981519 c 0.653442,-0.11402 1.217165,-0.224592 1.728391,-0.02593 0.221411,0.376296 0.06514,0.650719 -0.05916,0.933625 -1.717175,3.9082321 -3.440769,7.8136861 -5.139545,11.7299211 -0.281789,0.649613 -0.680474,0.96488 -1.405363,0.933381 -0.631648,-0.02745 -1.241261,0.0084 -1.55048,-0.711901 -1.770893,-4.125071 -3.550195,-8.246541 -5.31908,-12.3724751 -0.0461,-0.107534 -0.0058,-0.2521 -0.0058,-0.370543 1.761384,-0.501045 2.090634,-0.346404 2.746756,1.210754 1.161669,2.7569851 2.329574,5.5113791 3.506657,8.2618181 0.131112,0.306375 0.338609,0.580044 0.617914,1.048846 1.095046,-2.503723 2.101469,-4.83861 3.137849,-7.160133 0.517562,-1.1593461 0.881891,-2.3945911 1.741882,-3.4773551 z"
       id="path7"
       style="stroke-width:0.264583" />
    <path
       fill="currentColor"
       opacity="1"
       stroke="none"
       d="m 19.408231,10.572762 c 0.009,2.819958 0.01204,5.507659 0.0295,8.195268 0.0049,0.74822 0.01953,1.398494 -1.051591,1.411729 -1.023776,0.01265 -1.259928,-0.448117 -1.254713,-1.369975 0.0306,-5.419421 0.03962,-10.8391961 0.0072,-16.2585511 -0.006,-1.003501 0.325215,-1.474644 1.343991,-1.475057 1.17027,-5.29e-4 1.05461,0.818232 1.044575,1.569527 -0.03469,2.598324 -0.07893,5.196525 -0.118968,7.9270591 z"
       id="path8"
       style="stroke-width:0.264583" />
    <path
       opacity="1"
       stroke="currentColor"
       stroke-width="6"
       filter="url(#engrosar)"
       d="m 29.317072,7.1065189 c 1.221677,-0.786958 2.658928,-0.552386 3.406812,0.542954 0.330375,0.483926 0.442114,1.025414 0.399087,1.603809 -0.0078,0.104474 -0.01617,0.208881 -0.02537,0.326676 0.217551,0 0.414133,-0.0042 0.610518,7.94e-4 0.944851,0.02373 1.663348,0.4542891 2.074354,1.2931961 0.434975,0.887796 0.381942,1.780818 -0.257582,2.56931 -0.218631,0.2695 -0.245153,0.422545 -0.0071,0.70562 0.64819,0.770639 0.698032,1.871081 0.182809,2.742621 -0.480039,0.812009 -1.468866,1.261266 -2.42901,1.10535 -0.05029,-0.0082 -0.103074,-0.0011 -0.195241,-0.0011 0.140615,1.169347 -0.170321,2.148867 -1.277131,2.699854 -1.08776,0.541488 -2.057402,0.238905 -2.931427,-0.56654 -0.437586,0.449951 -0.951987,0.711042 -1.561166,0.810417 -1.263875,0.2062 -2.630694,-0.910429 -2.664092,-2.18966 -0.006,-0.230304 0.10823,-0.508664 -0.04494,-0.679236 -0.150495,-0.167516 -0.420698,-0.0081 -0.639204,-0.03346 -0.922917,-0.107084 -1.632429,-0.531225 -2.026102,-1.390403 -0.414833,-0.905582 -0.282755,-1.767753 0.328083,-2.538519 0.186124,-0.234889 0.206904,-0.353197 0.0058,-0.601342 -0.63749,-0.786641 -0.751647,-1.67214 -0.309597,-2.592829 0.428027,-0.891495 1.174126,-1.3093201 2.148165,-1.3334161 0.511845,-0.01265 0.487688,-0.0051 0.508024,-0.53435 0.03837,-1.000299 0.451673,-1.796372 1.408057,-2.198904 0.9291,-0.390993 1.807213,-0.254841 2.589959,0.399087 0.07318,0.06113 0.140806,0.128886 0.211497,0.19295 0.0076,0.0069 0.01876,0.0097 0.0459,0.02334 0.177014,-0.05928 0.274796,-0.239604 0.44887,-0.35619 m 4.768467,6.9873211 c -0.196961,-0.287603 -0.302967,-0.309976 -0.03614,-0.493615 0.096,-0.06604 0.337193,-0.292894 0.431784,-0.360587 0.671206,-0.480677 0.872183,-1.324941 0.486865,-2.032157 -0.346694,-0.63633 -1.176612,-0.905197 -1.915001,-0.628623 -0.355359,0.133157 -0.662405,0.339299 -0.927764,0.602805 -0.806204,0.800537 -1.601835,1.611784 -2.409695,2.410659 -0.154258,0.152535 -0.170574,0.253756 -0.0088,0.414192 0.821822,0.814689 1.630838,1.642372 2.451004,2.458717 0.329605,0.328081 0.72666,0.545822 1.182156,0.655844 1.022485,0.246933 2.023041,-0.758915 1.789681,-1.784966 -0.132836,-0.583939 -0.541292,-0.915779 -1.044088,-1.242269 m -11.202513,2.418466 c 0.224369,0.298376 0.508407,0.509746 0.876324,0.596625 0.709895,0.167706 1.286055,-0.140362 1.764884,-0.591905 0.864791,-0.815454 1.682848,-1.680496 2.523096,-2.522077 0.139658,-0.139851 0.147818,-0.243813 -0.0045,-0.393861 -0.801873,-0.790081 -1.592337,-1.591702 -2.388219,-2.387902 -0.281739,-0.281866 -0.610709,-0.495591 -0.98392,-0.63315 -0.778224,-0.286899 -1.587301,0.02492 -1.914167,0.729657 -0.35033,0.755343 -0.08867,1.581372 0.635825,2.0071 0.561181,0.329803 0.5724,0.641948 0.01662,0.968626 -0.64666,0.380093 -1.153155,1.288352 -0.52587,2.226887 m 6.830581,3.182694 c 1.004316,0.76376 2.278965,0.303988 2.493071,-0.909659 0.09275,-0.525933 -0.09612,-0.997434 -0.436184,-1.381733 -0.850636,-0.961419 -1.788914,-1.839016 -2.695199,-2.747084 -0.172228,-0.172548 -0.297612,-0.123148 -0.450972,0.03245 -0.722133,0.732583 -1.458989,1.450763 -2.177426,2.186918 -0.393668,0.40336 -0.750559,0.833554 -0.881292,1.411116 -0.175163,0.773832 0.389715,1.63607 1.170553,1.756791 0.748205,0.115692 1.301359,-0.172672 1.72996,-0.90188 0.250436,-0.426114 0.560289,-0.430702 0.812321,-0.007 0.114356,0.192186 0.226859,0.383728 0.435168,0.560102 m -3.326864,-9.040497 c 0.746672,0.754448 1.497301,1.505074 2.237023,2.266217 0.16484,0.169553 0.289964,0.215061 0.472392,0.02894 0.854207,-0.87167 1.719884,-1.73206 2.57116,-2.606537 0.318386,-0.32706 0.522489,-0.7293321 0.559144,-1.1877651 0.05851,-0.730734 -0.345292,-1.32997 -1.013243,-1.552305 -0.628052,-0.209071 -1.337752,0.05392 -1.753672,0.649914 -0.525803,0.753425 -0.667946,0.7526 -1.160227,-0.0064 -0.369001,-0.568957 -1.117711,-0.841007 -1.76023,-0.639522 -0.625118,0.196009 -1.051042,0.802193 -1.020321,1.491816 0.0285,0.639014 0.403683,1.0999291 0.867974,1.5556211 z"
       style="fill:currentColor;stroke-width:0.382453"
       id="path9-8" />
    <path
       style="fill:#cdde87;stroke-width:0.0637418"
       d="m 25.251141,9.9757539 0.472651,-2.664045 3.136702,0.558586 3.17967,-0.472649 0.558593,2.6210761 -3.738263,3.56639 z"
       id="path15-8" />
    <path
       style="fill:#89a02c;stroke-width:0.0637418"
       d="m 32.471033,17.676594 -0.472649,2.664053 -3.136705,-0.558594 -3.179667,0.472654 -0.558593,-2.621076 3.73826,-3.56639 z"
       id="path15-0-2" />
    <path
       style="fill:#677821;stroke-width:0.0637418"
       d="m 24.98243,17.40954 -2.664047,-0.472652 0.558588,-3.136699 -0.472654,-3.179672 2.621079,-0.558586 3.566387,3.738258 z"
       id="path15-9-4" />
    <path
       style="fill:#abc837;stroke-width:0.0637418"
       d="m 32.765733,10.195969 2.66405,0.472657 -0.558593,3.136696 0.472654,3.17967 -2.621076,0.558594 -3.566388,-3.738264 z"
       id="path15-4-5" />
  </g>
</svg>
