<?xml version="1.0" encoding="utf-8"?>
<svg viewBox="0 0 110 22" class="h-full w-full" version="1.1" id="svg1" xmlns="http://www.w3.org/2000/svg">
  <g>
    <path fill="#000000" opacity="1" stroke="none" d="m 106.54449,7.7056889 c 1.76445,1.346388 2.2068,3.2123521 2.4545,5.1702521 0.11697,0.924613 -0.30082,1.248559 -1.20762,1.238102 -2.81671,-0.03248 -5.63409,-0.02053 -8.451119,-0.007 -1.387641,0.0066 -1.560192,0.309849 -0.94762,1.557446 1.31745,2.683187 4.957289,3.449161 7.628769,1.561759 0.60755,-0.429236 1.05761,-0.724405 1.66175,-0.01016 0.4607,0.544645 0.54251,0.961287 -0.0566,1.4331 -2.39716,1.887804 -5.03663,2.225553 -7.825839,1.104463 -2.521058,-1.013301 -3.877402,-2.990498 -4.09517,-5.671108 -0.239228,-2.944992 0.674201,-5.4449371 3.39224,-6.9083401 2.500339,-1.346194 5.003679,-1.098399 7.446709,0.531517 m -6.736069,1.448998 c -0.94844,0.760024 -1.660038,1.6563921 -1.764972,3.0499921 2.844991,0 5.618941,0 8.468201,0 0.12371,-1.519877 -0.66182,-2.4252001 -1.70676,-3.1314231 -1.58469,-1.071017 -3.21742,-1.016095 -4.996469,0.081431 z" id="path2" style="stroke-width:0.264583"/>
    <path fill="#000000" opacity="1" stroke="none" d="m 62.61055,11.777929 c 0.04095,2.364181 0.07785,4.608602 0.0764,6.852991 -5.3e-4,0.61495 0.216847,1.388044 -0.797547,1.519965 -0.935924,0.121706 -1.221775,-0.08479 -1.574226,-1.311693 -2.038586,1.60963 -4.280149,1.952487 -6.691926,1.065945 -1.589916,-0.584451 -2.588522,-1.99345 -2.614393,-3.625739 -0.02734,-1.725046 0.823407,-2.961049 2.507729,-3.666095 1.736867,-0.727062 3.562823,-0.407832 5.354428,-0.452589 1.67396,-0.04183 1.932408,-0.411321 1.261099,-1.977527 -0.64245,-1.4988011 -2.551022,-2.2409341 -4.535527,-1.7810371 -1.12377,0.260434 -2.103305,0.841737 -3.029474,1.438753 -1.329417,-1.344718 -1.299614,-1.671756 0.218284,-2.465231 2.034752,-1.063665 4.189093,-1.313558 6.403428,-0.730948 2.235959,0.588287 3.162712,2.005303 3.421723,5.1332051 m -4.450357,6.365462 c 1.44332,-0.659593 2.310275,-1.712516 2.304478,-3.365693 -0.0019,-0.496102 -0.132598,-0.888987 -0.726845,-0.870514 -1.536776,0.04778 -3.078268,0.05058 -4.607779,0.185793 -0.945944,0.08363 -1.632233,0.667176 -1.819487,1.650132 -0.175659,0.922078 0.233392,1.638798 0.980094,2.145615 1.155186,0.784045 2.408711,0.66602 3.869539,0.254667 z" id="path3" style="stroke-width:0.264583"/>
    <path fill="#000000" opacity="1" stroke="none" d="m 68.789516,12.77962 c -0.0098,2.10294 -0.03149,4.084119 -0.01249,6.064909 0.0079,0.822195 -0.163845,1.337683 -1.158036,1.331936 -0.968174,-0.0056 -1.20251,-0.491347 -1.191852,-1.322353 0.04843,-3.781997 0.09077,-7.564136 0.112477,-11.3463521 0.0035,-0.611058 0.103886,-1.051647 0.834154,-1.040416 0.632262,0.0097 1.27993,-0.01339 1.353553,0.867479 0.0217,0.259448 0.05289,0.518097 0.09068,0.882713 1.836161,-1.679289 3.919464,-2.21154 6.261246,-1.672394 2.637372,0.607198 3.895177,2.334184 4.027984,5.7323201 0.08759,2.241814 -5.29e-4,4.490021 0.02805,6.734879 0.01101,0.86129 -0.357505,1.15303 -1.192081,1.15516 -0.898313,0.0024 -1.10481,-0.402196 -1.084283,-1.223092 0.04951,-1.979901 0.02671,-3.961847 0.01897,-5.942902 -0.01153,-2.958137 -1.179208,-4.5750211 -3.55878,-4.6395111 -2.002089,-0.05427 -4.297072,0.941449 -4.529585,4.4176241 z" id="path4" style="stroke-width:0.264583"/>
    <path fill="#000000" opacity="1" stroke="none" d="m 91.681305,6.8936119 c 0.579969,0.340312 1.137801,0.565475 1.531237,0.956167 0.428751,0.425757 1.383297,0.7937 0.580374,1.668679 -0.660247,0.7194901 -1.231805,0.6461261 -1.999007,-0.02196 -1.750166,-1.524042 -3.912663,-1.546143 -5.704059,-0.22791 -1.80367,1.3272621 -2.473251,3.8638881 -1.600613,6.0637401 0.782381,1.972222 2.837132,3.159858 4.98403,2.894065 1.006933,-0.124661 1.873189,-0.565817 2.531113,-1.300527 0.721127,-0.805281 1.298482,-0.49221 1.887609,0.08891 0.714314,0.704602 -0.01696,1.121418 -0.391546,1.517068 -1.735535,1.833124 -4.956255,2.328749 -7.626422,1.222436 -2.365377,-0.980043 -4.085492,-3.617455 -4.021169,-6.165604 0.138314,-5.4794441 4.437729,-8.4552711 9.828453,-6.6950741 z" id="path5" style="stroke-width:0.264583"/>
    <path fill="#000000" opacity="1" stroke="none" d="m 4.5138961,13.930803 c 0.5647743,4.001813 4.5053192,5.614893 7.6265269,3.244035 0.341437,-0.259376 0.576945,-0.734814 1.063358,-0.722098 0.507299,0.01328 0.936479,0.305692 1.209008,0.716971 0.321905,0.485815 -0.113363,0.829569 -0.372062,1.152482 C 11.849358,21.05758 6.5270392,20.972742 3.9825572,18.173979 1.6365445,15.593548 1.4992204,11.455219 3.6721983,8.8206169 c 2.1597779,-2.618615 6.295684,-3.269543 9.2565507,-1.456857 0.751737,0.460227 1.085236,0.828212 1.576308,1.758728 -0.707096,0.794517 -1.305613,1.4220301 -2.435786,0.35609 C 10.663074,8.1523029 8.9208783,7.9397269 7.1627007,8.8006809 5.0912593,9.8150399 4.3364189,11.584515 4.5138961,13.930803 Z" id="path6" style="stroke-width:0.264583"/>
    <path fill="#000000" opacity="1" stroke="none" d="m 48.476157,6.5981519 c 0.653442,-0.11402 1.217165,-0.224592 1.728391,-0.02593 0.221411,0.376296 0.06514,0.650719 -0.05916,0.933625 -1.717175,3.9082321 -3.440769,7.8136861 -5.139545,11.7299211 -0.281789,0.649613 -0.680474,0.96488 -1.405363,0.933381 -0.631648,-0.02745 -1.241261,0.0084 -1.55048,-0.711901 -1.770893,-4.125071 -3.550195,-8.246541 -5.31908,-12.3724751 -0.0461,-0.107534 -0.0058,-0.2521 -0.0058,-0.370543 1.761384,-0.501045 2.090634,-0.346404 2.746756,1.210754 1.161669,2.7569851 2.329574,5.5113791 3.506657,8.2618181 0.131112,0.306375 0.338609,0.580044 0.617914,1.048846 1.095046,-2.503723 2.101469,-4.83861 3.137849,-7.160133 0.517562,-1.1593461 0.881891,-2.3945911 1.741882,-3.4773551 z" id="path7" style="stroke-width:0.264583"/>
    <path fill="#000000" opacity="1" stroke="none" d="m 19.408231,10.572762 c 0.009,2.819958 0.01204,5.507659 0.0295,8.195268 0.0049,0.74822 0.01953,1.398494 -1.051591,1.411729 -1.023776,0.01265 -1.259928,-0.448117 -1.254713,-1.369975 0.0306,-5.419421 0.03962,-10.8391961 0.0072,-16.2585511 -0.006,-1.003501 0.325215,-1.474644 1.343991,-1.475057 1.17027,-5.29e-4 1.05461,0.818232 1.044575,1.569527 -0.03469,2.598324 -0.07893,5.196525 -0.118968,7.9270591 z" id="path8" style="stroke-width:0.264583"/>
    <path stroke="#000000" filter="url(#engrosar)" d="M 29.317 7.107 C 30.539 6.32 31.976 6.554 32.724 7.649 C 33.054 8.133 33.166 8.675 33.123 9.253 C 33.115 9.358 33.107 9.462 33.098 9.58 C 33.315 9.58 33.512 9.576 33.708 9.581 C 34.653 9.604 35.371 10.035 35.782 10.874 C 36.217 11.762 36.164 12.655 35.525 13.443 C 35.306 13.713 35.28 13.866 35.518 14.149 C 36.166 14.92 36.216 16.02 35.701 16.891 C 35.221 17.704 34.232 18.153 33.272 17.997 C 33.221 17.989 33.169 17.996 33.076 17.996 C 33.217 19.165 32.906 20.145 31.799 20.696 C 30.711 21.237 29.742 20.935 28.868 20.129 C 28.43 20.579 27.916 20.84 27.307 20.939 C 26.043 21.146 24.676 20.029 24.643 18.75 C 24.637 18.52 24.751 18.241 24.598 18.071 C 24.447 17.903 24.177 18.062 23.958 18.037 C 23.035 17.93 22.326 17.506 21.932 16.647 C 21.517 15.741 21.65 14.879 22.26 14.108 C 22.446 13.873 22.467 13.755 22.266 13.507 C 21.629 12.72 21.515 11.835 21.957 10.914 C 22.385 10.023 23.131 9.605 24.105 9.581 C 24.617 9.568 24.592 9.576 24.613 9.046 C 24.651 8.046 25.064 7.25 26.021 6.847 C 26.95 6.456 27.828 6.593 28.611 7.246 C 28.684 7.308 28.752 7.375 28.822 7.439 C 28.83 7.446 28.841 7.449 28.868 7.463 C 29.045 7.403 29.143 7.223 29.317 7.107" style="fill:#000000;stroke-width:0.382453" id="path9-8"/>
    <path style="fill:#cdde87;stroke-width:0.0637418" d="m 25.251141,9.9757539 0.472651,-2.664045 3.136702,0.558586 3.17967,-0.472649 0.558593,2.6210761 -3.738263,3.56639 z" id="path15-8"/>
    <path style="fill:#89a02c;stroke-width:0.0637418" d="m 32.471033,17.676594 -0.472649,2.664053 -3.136705,-0.558594 -3.179667,0.472654 -0.558593,-2.621076 3.73826,-3.56639 z" id="path15-0-2"/>
    <path style="fill:#677821;stroke-width:0.0637418" d="m 24.98243,17.40954 -2.664047,-0.472652 0.558588,-3.136699 -0.472654,-3.179672 2.621079,-0.558586 3.566387,3.738258 z" id="path15-9-4"/>
    <path style="fill:#abc837;stroke-width:0.0637418" d="m 32.765733,10.195969 2.66405,0.472657 -0.558593,3.136696 0.472654,3.17967 -2.621076,0.558594 -3.566388,-3.738264 z" id="path15-4-5"/>
  </g>
</svg>