<?xml version="1.0" encoding="utf-8"?>
<svg version="1.1" viewBox="0 0 70 70" class="h-full w-full" xmlns="http://www.w3.org/2000/svg">
  <path d="M 36.666 7.295 C 41.737 4.029 47.703 5.002 50.807 9.549 C 52.178 11.558 52.642 13.805 52.464 16.206 C 52.431 16.64 52.396 17.073 52.358 17.562 C 53.261 17.562 54.077 17.545 54.892 17.565 C 58.814 17.664 61.797 19.451 63.503 22.933 C 65.308 26.618 65.088 30.325 62.434 33.598 C 61.526 34.717 61.416 35.352 62.404 36.527 C 65.095 39.726 65.302 44.293 63.163 47.911 C 61.17 51.281 57.066 53.146 53.081 52.499 C 52.872 52.465 52.653 52.495 52.271 52.495 C 52.854 57.349 51.564 61.415 46.969 63.702 C 42.454 65.95 38.429 64.694 34.801 61.35 C 32.985 63.218 30.85 64.302 28.321 64.714 C 23.075 65.57 17.401 60.935 17.263 55.625 C 17.238 54.669 17.712 53.514 17.077 52.806 C 16.452 52.111 15.33 52.772 14.423 52.667 C 10.593 52.223 7.647 50.462 6.013 46.896 C 4.292 43.137 4.84 39.558 7.375 36.359 C 8.148 35.384 8.234 34.893 7.399 33.863 C 4.753 30.597 4.279 26.922 6.114 23.1 C 7.891 19.4 10.988 17.666 15.031 17.566 C 17.156 17.513 17.055 17.545 17.14 15.348 C 17.299 11.196 19.014 7.891 22.984 6.22 C 26.841 4.597 30.486 5.163 33.735 7.877 C 34.039 8.131 34.32 8.412 34.613 8.678 C 34.645 8.706 34.691 8.718 34.804 8.775 C 35.538 8.529 35.944 7.78 36.667 7.296" stroke="#ffffff" fill="#ffffff" stroke-width="1.5875"/>
  <g stroke-width=".26458">
    <path d="m19.789 19.205 1.9619-11.058 13.02 2.3186 13.198-1.9619 2.3186 10.88-15.517 14.804z" fill="#cdde87"/>
    <path d="m49.758 51.17-1.9619 11.058-13.02-2.3186-13.198 1.9619-2.3186-10.88 15.517-14.804z" fill="#89a02c"/>
    <path d="m18.674 50.062-11.058-1.9619 2.3186-13.02-1.9619-13.198 10.88-2.3186 14.804 15.517z" fill="#677821"/>
    <path d="m50.981 20.119 11.058 1.9619-2.3186 13.02 1.9619 13.198-10.88 2.3186-14.804-15.517z" fill="#abc837"/>
  </g>
</svg>